<svg width="242" height="69" viewBox="0 0 242 69" fill="none" xmlns="http://www.w3.org/2000/svg">
<path d="M114.741 44.8881L119.85 44.7097L119.486 34.292C119.294 28.7795 115.644 25.9836 111.363 26.1331C108.524 26.2322 106.438 27.5212 104.959 29.2566L104.274 29.2806C103.062 27.8261 101.003 26.4949 97.9991 26.5998C95.2791 26.6948 93.1684 27.9612 92.0804 29.3556L91.3945 29.3795L91.3235 27.3474L86.5694 27.5134L87.2089 45.8261L92.2705 45.6494L91.936 36.0726C91.8219 32.8024 92.7524 31.6474 96.1584 31.5284C99.5643 31.4095 100.526 32.4985 100.64 35.7686L100.974 45.3454L106.083 45.167L105.749 35.5902C105.635 32.3201 106.542 31.1659 109.924 31.0477C113.33 30.9288 114.291 32.0178 114.406 35.2879L114.741 44.8881ZM66.8011 43.9429C65.8794 43.3202 65.4203 42.3774 65.3689 40.9059C65.3044 39.0606 65.7938 36.7984 66.7056 35.7843C67.345 35.1071 68.2805 34.7705 69.5577 34.7259C71.379 34.6623 73.6422 35.0509 74.5981 35.9764C75.2588 36.5848 75.5728 37.4391 75.6152 38.6537C75.6764 40.4056 75.2653 42.8755 74.1895 43.9421C73.5705 44.525 72.7517 44.8108 71.5454 44.853C69.9126 44.8866 67.8418 44.5847 66.8011 43.9429ZM74.9538 47.517L74.7996 49.2062L79.5741 49.6241L81.1873 31.3964L76.4128 30.9785L76.2611 32.7378L75.6935 32.7576C74.9407 31.5444 72.9898 29.9287 69.3946 30.0542C64.404 30.2285 60.8415 34.0012 60.353 38.9996C60.2991 39.4926 60.2926 39.984 60.3097 40.4745C60.4761 45.2395 63.8764 49.0263 69.0048 49.4085C69.2895 49.422 69.5741 49.4354 69.8571 49.4021C71.9858 49.3278 73.5624 48.3607 74.3625 47.5376L74.9538 47.517ZM182.124 38.3956C178.316 38.5286 177.019 37.3344 176.888 33.5737C176.756 29.8131 177.965 28.4846 181.773 28.3516C185.581 28.2187 186.879 29.4596 187.011 33.2202C187.142 36.9809 185.932 38.2626 182.124 38.3956ZM157.715 39.248C153.907 39.381 152.61 38.1867 152.478 34.4261C152.347 30.6655 153.556 29.337 157.364 29.204C161.172 29.071 162.47 30.3119 162.602 34.0726C162.733 37.8332 161.523 39.115 157.715 39.248ZM133.944 40.0781C130.136 40.211 128.839 39.0168 128.708 35.2562C128.577 31.4955 129.785 30.1671 133.593 30.0341C137.401 29.9011 138.7 31.142 138.831 34.9027C138.962 38.6633 137.752 39.9451 133.944 40.0781ZM52.6268 22.548L50.3823 47.1121L55.4415 47.5435L57.6386 22.9811L52.6268 22.548ZM187.481 40.5939L187.543 42.3691L192.297 42.2031L191.658 23.8904L186.904 24.0564L186.966 25.8316L186.28 25.8556C185.488 24.8776 183.526 23.6365 180.948 23.7265C175.296 23.9239 171.565 28.3105 171.755 33.7529C171.945 39.1954 175.972 43.2877 181.625 43.0903C184.203 43.0003 186.073 41.6253 186.795 40.5945L187.481 40.5939ZM133.431 25.3858C127.14 25.6055 123.385 29.993 123.575 35.4354C123.765 40.8778 127.816 44.9694 134.107 44.7497C140.399 44.53 144.154 40.1659 143.964 34.7234C143.774 29.281 139.723 25.1661 133.431 25.3858ZM163.143 41.4438L163.205 43.219L167.959 43.053L167.111 18.7607L162.073 18.9366L162.343 26.6681L161.657 26.692C160.865 25.7141 159.117 24.4655 156.538 24.5555C150.886 24.7529 147.155 29.1396 147.345 34.582C147.535 40.0244 151.562 44.1168 157.215 43.9194C159.793 43.8293 161.758 42.4511 162.456 41.4211C162.457 41.4678 163.143 41.4438 163.143 41.4438Z" fill="white"/>
</svg>
