<svg width="242" height="69" viewBox="0 0 242 69" fill="none" xmlns="http://www.w3.org/2000/svg">
<path d="M203.042 19.7548L203.207 24.4755L208.761 24.2815L209.242 38.0448L214.602 37.8577L214.121 24.0959L219.676 23.9019L219.511 19.1797L203.042 19.7548ZM177.838 20.6349L173.904 27.6406L171.775 27.715L171.535 20.855L166.174 21.0422L166.819 39.5263L172.181 39.339L171.934 32.2565L174.036 32.183L178.763 39.1092L184.815 38.8978L178.566 29.6736L183.743 20.4287L177.838 20.6349ZM135.868 21.6533C130.153 21.8529 126.986 24.6348 127.306 29.1707L132.859 28.9767C132.792 27.0496 133.819 26.1462 136.036 26.0688C137.624 26.0134 138.644 26.6209 138.678 27.571C138.699 28.1715 138.456 28.4164 137.483 28.7166L133.116 30.0312C128.881 31.2979 127.03 33.0408 127.127 35.8344C127.243 39.1329 129.846 41.2661 133.563 41.1363C134.755 41.2166 135.943 40.9294 136.952 40.3171C137.96 39.7048 138.736 38.8001 139.165 37.7369L139.262 40.5305L144.404 40.3509L143.972 27.9725C143.744 23.574 140.701 21.4846 135.868 21.6533ZM134.455 36.796C133.118 36.8427 132.422 36.2388 132.389 35.3021C132.356 34.3654 132.823 33.8885 134.28 33.4457L138.864 32.0397L138.874 32.3475C138.909 32.9192 138.82 33.4922 138.614 34.0308C138.407 34.5695 138.087 35.0625 137.673 35.4793C137.259 35.8962 136.759 36.2281 136.206 36.4546C135.653 36.681 135.057 36.7972 134.455 36.796ZM156.769 20.9219C155.647 20.8947 154.545 21.2094 153.622 21.8201C152.699 22.4308 152.003 23.3056 151.638 24.3169L151.54 21.5234L146.179 21.7106L147.001 45.2679L152.363 45.0807L152.091 37.3124C152.539 38.282 153.298 39.0906 154.26 39.6223C155.222 40.1541 156.337 40.3817 157.445 40.2724C161.854 40.1185 164.675 36.7473 164.452 30.3474C164.228 23.9476 161.221 20.7665 156.771 20.9219L156.769 20.9219ZM155.811 35.6015C153.359 35.6871 151.833 34.146 151.716 30.7922C151.599 27.4384 153.013 25.7811 155.436 25.6965C157.86 25.6118 159.121 27.1757 159.238 30.5295C159.355 33.8833 158.177 35.5174 155.782 35.601L155.813 35.5999L155.811 35.6015ZM116.448 22.7787L113.156 34.2238L109.161 23.0332L103.257 23.2394L100.816 41.8312L105.736 41.6593L107.201 30.0956L111.23 41.4675L115.446 41.3203L118.798 29.4812L120.999 41.1264L125.993 40.952L122.263 22.5757L116.448 22.7787Z" fill="white"/>
<path d="M193.378 34.4721C192.794 34.5157 192.207 34.4436 191.654 34.2602C191.102 34.0768 190.596 33.7862 190.168 33.4068C189.74 33.0273 189.4 32.5672 189.169 32.0555C188.938 31.5439 188.821 30.9918 188.825 30.4341L202.046 29.9724C202.046 29.9724 202.101 29.0192 202.067 28.0422C201.871 22.4521 198.296 19.4987 192.847 19.689C187.104 19.8895 183.247 24.0118 183.445 29.6842C183.643 35.3565 187.724 39.3273 193.468 39.1267C198.799 38.9405 202.281 35.8813 202.248 31.5733L196.99 31.7569C196.864 32.5615 196.419 33.2908 195.748 33.7953C195.076 34.2998 194.228 34.5414 193.378 34.4706L193.378 34.4721ZM193.01 23.9372C193.45 23.8654 193.9 23.8776 194.334 23.9729C194.769 24.0682 195.179 24.2447 195.541 24.4923C195.902 24.7398 196.209 25.0535 196.442 25.415C196.675 25.7765 196.83 26.1788 196.898 26.5984L188.995 26.8744C189.229 26.0201 189.758 25.2651 190.498 24.7317C191.237 24.1982 192.143 23.9175 193.069 23.9351L193.01 23.9372Z" fill="white"/>
<path d="M74.0879 42.7547L68.7264 42.942L68.081 24.4579L80.5235 24.0234L80.6888 28.7576L73.6077 29.0049L74.0879 42.7547Z" fill="white"/>
<path d="M34.6166 36.9701L37.9081 25.5101L43.7246 25.307L47.4533 43.6848L42.459 43.8592L40.2583 32.2126L36.9062 44.0531L32.6901 44.2004L28.6609 32.827L27.1969 44.3922L22.2764 44.564L24.7171 25.9707L30.6215 25.7646L34.6166 36.9701Z" fill="white"/>
<path fill-rule="evenodd" clip-rule="evenodd" d="M90.3332 23.2322C84.6188 23.4317 81.4671 26.2131 81.7716 30.7495L87.3245 30.5556C87.2572 28.6284 88.2845 27.725 90.5016 27.6476C92.0894 27.5922 93.1093 28.1848 93.1424 29.1349C93.1639 29.7504 92.9227 29.9951 91.9624 30.2964L87.5954 31.6096C83.3457 32.8633 81.4952 34.6196 81.5928 37.4147C81.7085 40.7267 84.3117 42.8449 88.0288 42.7151C89.2181 42.7861 90.4019 42.4968 91.4106 41.8888C92.4193 41.2808 93.2013 40.3852 93.6446 39.3301L93.7421 42.1237L98.8698 41.9447L98.439 29.6095C98.2095 25.1528 95.1659 23.0634 90.3332 23.2322ZM86.8704 36.8953C86.9026 37.8171 87.5867 38.4229 88.9517 38.3752C89.5517 38.3722 90.1462 38.2557 90.6975 38.0271C91.5285 37.685 92.2296 37.1077 92.7052 36.3739C93.1807 35.64 93.4078 34.7851 93.3553 33.9257L93.3436 33.5911L88.7458 34.9961C87.2923 35.4806 86.8381 35.9721 86.8704 36.8953Z" fill="white"/>
<path fill-rule="evenodd" clip-rule="evenodd" d="M57.5067 39.2086C56.9222 39.254 56.3347 39.1831 55.7814 39.0004C55.2281 38.8177 54.7212 38.5272 54.293 38.1474C53.8648 37.7676 53.5246 37.3067 53.2942 36.7942C53.0637 36.2817 52.948 35.7287 52.9544 35.1705L66.1752 34.7089C66.1752 34.7089 66.2299 33.7557 66.1957 32.7787C66.0005 27.1885 62.4099 24.2357 56.9763 24.4254C51.2336 24.626 47.3763 28.7483 47.5749 34.4355C47.7734 40.1213 51.8532 44.0786 57.5975 43.878C62.9291 43.6918 66.4108 40.6461 66.3636 36.3251L61.1198 36.5082C60.9897 37.3103 60.5435 38.0359 59.8722 38.5374C59.2009 39.0388 58.3549 39.2783 57.5066 39.2071L57.5067 39.2086ZM57.1543 28.671L57.1388 28.6736L57.1984 28.6715L57.1543 28.671ZM54.6293 29.4713C55.3565 28.9468 56.2443 28.6656 57.1543 28.671C57.5887 28.6001 58.0334 28.6118 58.4626 28.7053C58.8969 28.7999 59.3067 28.9765 59.6676 29.2246C60.0286 29.4727 60.3334 29.7873 60.5642 30.1498C60.795 30.5123 60.9471 30.9154 61.0114 31.3353L53.1238 31.6108C53.3601 30.7579 53.8903 30.0044 54.6293 29.4713Z" fill="white"/>
</svg>
