<svg width="242" height="69" viewBox="0 0 242 69" fill="none" xmlns="http://www.w3.org/2000/svg">
<path d="M77.2858 23.7483C69.4013 23.2732 63.0703 29.8223 64.1145 37.3815C64.8856 42.9731 69.7485 47.3489 75.5827 47.7009C83.4674 48.1785 89.7982 41.6269 88.7542 34.0703C87.9831 28.4786 83.1202 24.1028 77.2859 23.7508L77.2858 23.7483ZM77.5184 42.0378C73.2064 42.721 69.4256 39.319 69.831 35.1203C70.1078 32.2579 72.4102 29.8752 75.3475 29.4116C79.6569 28.7284 83.4404 32.1303 83.035 36.329C82.7607 39.1888 80.4558 41.5741 77.5184 42.0378Z" fill="white"/>
<path d="M95.0651 23.604C93.2682 23.6668 91.9079 25.2944 92.3445 27.0794C92.6635 28.3897 93.9778 29.2453 95.3692 29.1967L103.461 28.9142L91.4261 45.3887C91.0312 45.93 91.447 46.6709 92.1309 46.6471L111.887 45.9572C113.281 45.9085 114.529 44.9635 114.756 43.6341C115.067 41.8229 113.597 40.2942 111.8 40.357L101.941 40.7013L113.965 24.2399C114.363 23.6933 113.944 22.9448 113.255 22.9689L95.0651 23.604Z" fill="white"/>
<path d="M174.009 20.9105C172.672 21.2312 171.791 22.4706 171.838 23.7981L172.163 33.1161L156.051 21.6502C155.49 21.2498 154.698 21.654 154.721 22.3292L155.393 41.5687C155.439 42.8963 156.404 44.0714 157.76 44.298C159.65 44.6136 161.256 43.1849 161.195 41.4405L160.866 32.0431L176.979 43.5091C177.539 43.9094 178.335 43.5053 178.311 42.83L177.637 23.5213C177.576 21.7769 175.874 20.4638 174.011 20.9104L174.009 20.9105Z" fill="white"/>
<path d="M133.325 27.3362C139.962 27.1044 145.038 30.3075 145.144 33.3256C145.249 36.3438 140.408 39.8932 133.772 40.125C127.135 40.3567 122.058 37.1536 121.953 34.1354C121.848 31.1174 126.689 27.5679 133.325 27.3362ZM133.13 21.7397C123.522 22.0752 115.923 27.7159 116.154 34.3354C116.385 40.9575 124.359 46.0518 133.967 45.7163C143.574 45.3808 151.174 39.7401 150.943 33.1205C150.711 26.4985 142.734 21.4043 133.13 21.7397Z" fill="white"/>
</svg>
