<svg width="242" height="69" viewBox="0 0 242 69" fill="none" xmlns="http://www.w3.org/2000/svg">
<path d="M96.3669 37.8879L99.057 22.9277L111.892 22.4795C112.77 22.5441 114.819 22.6632 116.025 23.7646C117.232 24.866 117.597 26.9498 117.623 27.7112L115.467 41.2233C115.292 41.8011 114.953 43.2425 113.826 44.4253C112.806 45.4965 111.553 46.2201 109.521 46.5769L94.4906 47.1018L95.1179 43.9352C95.1112 43.7447 95.3832 43.0682 96.2284 42.1809C97.2489 41.1099 98.5159 40.6717 99.0956 40.6514L107.551 40.3561C107.839 40.2508 108.647 40.0935 109.271 39.4385C109.628 39.0643 109.728 38.5648 109.815 38.2759L111.004 30.5154C110.984 29.9443 110.912 29.5466 110.663 29.0978C110.413 28.6491 109.865 28.5539 109.476 28.5675L104.225 28.7509L103.268 34.788C103.278 35.0735 103.139 36.1075 102.463 36.8173C101.787 37.5271 100.742 37.7351 100.451 37.7453L96.3669 37.8879Z" fill="white"/>
<path d="M150.135 30.2924L151.563 21.0942L147.479 21.2368C147.187 21.2469 146.491 21.3856 146.04 21.8588C145.59 22.3319 145.302 23.0281 145.215 23.317L141.316 45.4666L146.275 45.2934C146.563 45.1881 147.252 44.8591 147.703 44.3858C148.154 43.9128 148.253 43.4138 148.247 43.2234L149.238 38.0428L152.337 34.7898C153.794 37.5024 156.819 42.8097 157.309 43.4787C157.8 44.1477 158.714 44.6684 159.109 44.8453L164.943 44.6415L156.881 31.2004L167.026 20.5542L159.303 20.8239L150.135 30.2924Z" fill="white"/>
<path d="M139.213 34.3904L139.838 30.652L123.623 31.2182C122.891 31.2438 122.336 31.2632 121.481 31.8648C120.951 32.2379 120.724 32.7489 120.462 33.6158L119.998 37.0627L135.943 36.5058C136.61 36.4826 137.371 36.3692 138.096 35.8589C138.821 35.3486 139.223 34.6759 139.213 34.3904Z" fill="white"/>
<path d="M140.903 25.1829L141.529 21.4446L125.314 22.0108C124.582 22.0364 124.027 22.0557 123.172 22.6574C122.641 23.0305 122.414 23.5415 122.152 24.4083L121.688 27.8551L137.634 27.2983C138.3 27.275 139.061 27.1616 139.786 26.6514C140.511 26.1411 140.913 25.4685 140.903 25.1829Z" fill="white"/>
<path d="M137.749 43.5899L138.485 39.5618L122.27 40.1281C121.538 40.1536 120.873 40.4627 120.018 41.0644C119.487 41.4374 119.001 41.9575 118.739 42.8244L118.275 46.2712L134.48 45.7053C135.147 45.682 135.907 45.5686 136.632 45.0584C137.358 44.5482 137.759 43.8755 137.749 43.5899Z" fill="white"/>
<path d="M83.0205 23.4877L95.2676 23.06L95.0598 25.3544C94.8169 26.7923 94.8337 27.3635 93.9886 28.2507C93.1434 29.1379 92.5599 29.1582 91.6849 29.1888L85.8508 29.3925C85.3647 29.4095 84.5062 29.2679 83.8221 29.7493C83.138 30.2306 82.7925 30.9288 82.7052 31.2177L81.496 38.4072C81.4121 38.7913 81.3085 39.7288 81.5658 40.406C81.8231 41.083 82.8597 41.2184 83.0542 41.2116L89.1798 40.9977C89.5687 40.9841 90.7559 41.057 91.2385 41.4976C91.7213 41.9381 92.1536 42.6091 91.8918 43.476L91.1494 47.2185L79.4784 47.626C77.7282 47.6871 76.346 46.5919 75.6062 45.4741C74.4965 43.7976 74.6898 41.5037 74.8444 40.3548L76.8025 29.4226C76.7892 29.0419 77.0868 27.5258 78.4231 25.6495C79.7594 23.7731 82.0481 23.5217 83.0205 23.4877Z" fill="white"/>
</svg>
