<svg width="26" height="26" viewBox="0 0 26 26" fill="none" xmlns="http://www.w3.org/2000/svg">
<path d="M25.4357 16.9045L24.8213 14.8619L12.3061 18.6229L7.63413 2.59947C7.40373 1.776 6.86613 1.09227 6.1216 0.673067C5.376 0.2528 4.51413 0.151467 3.6416 0.395733L0 1.6064L0.673067 3.63093L4.2656 2.43627C4.53867 2.35733 4.82667 2.3936 5.07627 2.53333C5.3248 2.67307 5.50293 2.90133 5.584 3.18613L9.93173 18.0981C7.93387 18.1675 6.32747 19.8048 6.32747 21.8187C6.32747 23.8773 8.00213 25.552 10.0608 25.552C12.1195 25.552 13.7941 23.8773 13.7941 21.8187C13.7941 21.3461 13.6971 20.8981 13.536 20.4811L25.4357 16.9045ZM10.0597 23.4187C9.1776 23.4187 8.45973 22.7008 8.45973 21.8187C8.45973 20.9365 9.1776 20.2187 10.0597 20.2187C10.9419 20.2187 11.6597 20.9365 11.6597 21.8187C11.6597 22.7008 10.9419 23.4187 10.0597 23.4187ZM13.8635 15.9093L23.0837 13.1157L19.0965 0L9.8784 2.7936L13.8645 15.9093H13.8635ZM20.4203 11.6928L15.2843 13.2491L14.2219 9.75253L19.3579 8.19627L20.4203 11.6928ZM17.6747 2.6592L18.7371 6.15573L13.6011 7.712L12.5387 4.21547L17.6747 2.6592Z" fill="#050200"/>
</svg>
