<svg width="26" height="24" viewBox="0 0 26 24" fill="none" xmlns="http://www.w3.org/2000/svg">
<path d="M24.4501 0.745889C24.0909 0.444802 23.6697 0.226733 23.2165 0.107251C22.7632 -0.0122311 22.2892 -0.0301787 21.8283 0.0546892L15.2363 1.25256C14.293 1.42264 13.4346 1.90593 12.8 2.62429C12.1659 1.90475 11.3075 1.4203 10.3637 1.24936L3.77173 0.0514892C3.31069 -0.0322316 2.83688 -0.0136764 2.38379 0.105844C1.9307 0.225364 1.50939 0.442932 1.14963 0.743173C0.789873 1.04342 0.50044 1.419 0.301788 1.8434C0.103137 2.26779 0.000113862 2.73064 0 3.19922V21.1555L12.8 23.484L25.6 21.1555V3.19922C25.6 2.73098 25.4971 2.26846 25.2983 1.84448C25.0996 1.42049 24.81 1.04543 24.4501 0.745889ZM11.7333 21.1192L2.13333 19.3763V3.19922C2.13347 3.04305 2.16789 2.88881 2.23417 2.74741C2.30046 2.606 2.39698 2.48087 2.51693 2.38086C2.63688 2.28085 2.77733 2.20841 2.92835 2.16863C3.07937 2.12886 3.23728 2.12273 3.39093 2.15069L9.98187 3.34856C10.4734 3.43799 10.918 3.6971 11.2381 4.08073C11.5581 4.46435 11.7334 4.94814 11.7333 5.44776V21.1192ZM23.4667 19.3742L13.8667 21.1192V5.44776C13.8666 4.94814 14.0419 4.46435 14.3619 4.08073C14.682 3.6971 15.1266 3.43799 15.6181 3.34856L22.2091 2.15069C22.3627 2.12273 22.5206 2.12886 22.6717 2.16863C22.8227 2.20841 22.9631 2.28085 23.0831 2.38086C23.203 2.48087 23.2995 2.606 23.3658 2.74741C23.4321 2.88881 23.4665 3.04305 23.4667 3.19922V19.3742Z" fill="#050200"/>
</svg>
