<svg width="26" height="26" viewBox="0 0 26 26" fill="none" xmlns="http://www.w3.org/2000/svg">
<path d="M16.5333 16H20.8V18.1333H16.5333V16ZM25.6 14.9333V25.6H0V14.9333C0 13.1691 1.43573 11.7333 3.2 11.7333H5.33333V3.2C5.33333 1.43573 6.76907 0 8.53333 0H17.0667C18.8309 0 20.2667 1.43573 20.2667 3.2V11.7333H22.4C24.1643 11.7333 25.6 13.1691 25.6 14.9333ZM7.46667 11.7333H18.1333V3.2C18.1333 2.6112 17.6555 2.13333 17.0667 2.13333H8.53333C7.94453 2.13333 7.46667 2.6112 7.46667 3.2V11.7333ZM2.13333 23.4667H11.7333V13.8667H3.2C2.6112 13.8667 2.13333 14.3445 2.13333 14.9333V23.4667ZM23.4667 14.9333C23.4667 14.3445 22.9888 13.8667 22.4 13.8667H13.8667V23.4667H23.4667V14.9333ZM4.8 16V18.1333H9.06667V16H4.8ZM10.6667 6.4H14.9333V4.26667H10.6667V6.4Z" fill="#050200"/>
</svg>
