<svg width="48" height="48" viewBox="0 0 48 48" fill="none" xmlns="http://www.w3.org/2000/svg">
<g clip-path="url(#clip0_786_4116)">
<path d="M0 24C0 10.7452 10.7452 0 24 0C37.2548 0 48 10.7452 48 24C48 37.2548 37.2548 48 24 48C10.7452 48 0 37.2548 0 24Z" fill="#005BFF"/>
<path d="M23.9984 50.5L23.0003 21.5L32.0003 17.5L52.0003 39.5V50.5H23.9984Z" fill="#FF034B"/>
<path fill-rule="evenodd" clip-rule="evenodd" d="M2.28906 25.0609C4.97157 24.4773 7.79322 25.9884 8.94513 28.6254C10.5015 32.1882 8.58817 36.2142 4.9632 37.0027C2.2807 37.5863 -0.541163 36.0756 -1.69275 33.4385C-3.24957 29.8754 -1.33579 25.8497 2.28906 25.0609ZM5.02295 33.9807C6.28148 33.3724 6.97731 31.9079 6.69081 30.472C6.26993 28.3657 4.0758 27.1905 2.22942 28.0832C0.970896 28.6915 0.27475 30.1561 0.561568 31.5919C0.982442 33.6982 3.17658 34.8734 5.02295 33.9807ZM18.4003 20.0172C18.7083 19.9159 19.0053 20.2282 18.9037 20.5468L15.8461 30.1614L20.2436 28.7152C21.0451 28.4516 21.9279 29.0089 22.0484 29.9358C22.1366 30.6151 21.7087 31.2398 21.087 31.4443L12.2763 34.3419C11.9712 34.4423 11.677 34.1331 11.7774 33.8172L14.8377 24.1957L11.2282 25.3828C10.6068 25.5871 9.89162 25.3383 9.55929 24.739C9.10623 23.9218 9.48584 22.9489 10.2873 22.6853L18.4003 20.0172ZM45.5056 11.1372C46.2816 10.6772 47.2375 11.0995 47.5156 11.945L50.5943 21.3064C50.7017 21.6329 50.4021 21.9336 50.0913 21.8109L41.1767 18.2875L42.6752 22.8438C42.9533 23.6893 42.435 24.5965 41.5371 24.6869C40.8933 24.7518 40.289 24.3013 40.0775 23.6581L37.0098 14.3305C36.9024 14.004 37.2018 13.7034 37.5126 13.8261L46.4272 17.3498L44.9413 12.8317C44.7298 12.1885 44.9491 11.4671 45.5056 11.1372ZM27.1871 16.84C31.4719 15.4308 35.8015 16.8908 36.8574 20.1013C37.9131 23.3115 35.2953 27.0563 31.0105 28.4655C26.7257 29.8746 22.3964 28.4146 21.3407 25.2044C20.2848 21.9939 22.9023 18.2491 27.1871 16.84ZM23.9268 24.3538C24.408 25.8169 27.158 26.726 30.1182 25.7524C33.0785 24.7789 34.7521 22.415 34.2709 20.9519C33.7897 19.4888 31.0396 18.5794 28.0794 19.553C25.1191 20.5266 23.4456 22.8904 23.9268 24.3538Z" fill="white"/>
</g>
<defs>
<clipPath id="clip0_786_4116">
<path d="M0 24C0 10.7452 10.7452 0 24 0C37.2548 0 48 10.7452 48 24C48 37.2548 37.2548 48 24 48C10.7452 48 0 37.2548 0 24Z" fill="white"/>
</clipPath>
</defs>
</svg>
