<svg width="48" height="48" viewBox="0 0 48 48" fill="none" xmlns="http://www.w3.org/2000/svg">
<path d="M0 24C0 10.7452 10.7452 0 24 0C37.2548 0 48 10.7452 48 24C48 37.2548 37.2548 48 24 48C10.7452 48 0 37.2548 0 24Z" fill="url(#paint0_linear_786_4112)"/>
<path fill-rule="evenodd" clip-rule="evenodd" d="M35.4 19.0747C33.8 19.0747 32.36 19.5575 31.16 20.3621V13H27.76V26.5575C27.76 30.7011 31.2 34 35.36 34C39.52 34 43 30.7012 43 26.5172C43 22.3333 39.6 19.0747 35.36 19.0747H35.4ZM19.36 27.523L16.28 19.5977H13.92L10.8 27.523L7.68 19.5977H4L9.44 33.5172H11.8L15.08 25.2299L18.36 33.5172H20.72L26.16 19.5977H22.48L19.36 27.523ZM35.36 30.7012C33.08 30.7012 31.12 28.8908 31.12 26.5575C31.12 24.2241 32.92 22.4138 35.36 22.4138C37.8 22.4138 39.6 24.2644 39.6 26.5575C39.6 28.8506 37.68 30.7012 35.32 30.7012H35.36Z" fill="white"/>
<defs>
<linearGradient id="paint0_linear_786_4112" x1="0" y1="48" x2="48" y2="0" gradientUnits="userSpaceOnUse">
<stop stop-color="#7907FA"/>
<stop offset="1" stop-color="#F645D9"/>
</linearGradient>
</defs>
</svg>
