<svg width="20" height="19" viewBox="0 0 20 19" fill="none" xmlns="http://www.w3.org/2000/svg">
<path d="M10.6704 0.41078C10.3766 0.146329 9.99529 0 9.6 0C9.20471 0 8.82341 0.146329 8.5296 0.41078L0 8.08758V16.4076C0 17.0865 0.269713 17.7377 0.749807 18.2178C1.2299 18.6979 1.88105 18.9676 2.56 18.9676H16.64C17.319 18.9676 17.9701 18.6979 18.4502 18.2178C18.9303 17.7377 19.2 17.0865 19.2 16.4076V8.08758L10.6704 0.41078ZM12 17.3652H7.2V13.3444C7.2 12.7079 7.45286 12.0974 7.90294 11.6473C8.35303 11.1972 8.96348 10.9444 9.6 10.9444C10.2365 10.9444 10.847 11.1972 11.2971 11.6473C11.7471 12.0974 12 12.7079 12 13.3444V17.3652ZM17.6 16.4052C17.6 16.6598 17.4989 16.904 17.3188 17.084C17.1388 17.264 16.8946 17.3652 16.64 17.3652H13.6V13.3444C13.6 12.2835 13.1786 11.2661 12.4284 10.516C11.6783 9.76581 10.6609 9.34438 9.6 9.34438C8.53913 9.34438 7.52172 9.76581 6.77157 10.516C6.02143 11.2661 5.6 12.2835 5.6 13.3444V17.3652H2.56C2.30539 17.3652 2.06121 17.264 1.88118 17.084C1.70114 16.904 1.6 16.6598 1.6 16.4052V8.79958L9.6 1.59958L17.6 8.79958V16.4052Z" fill="#898989"/>
<path d="M17.6 16.4052C17.6 16.6598 17.4989 16.904 17.3188 17.084C17.1388 17.264 16.8946 17.3652 16.64 17.3652H13.6V13.3444C13.6 12.2835 13.1786 11.2661 12.4284 10.516C11.6783 9.76581 10.6609 9.34438 9.6 9.34438C8.53913 9.34438 7.52172 9.76581 6.77157 10.516C6.02143 11.2661 5.6 12.2835 5.6 13.3444V17.3652H2.56C2.30539 17.3652 2.06121 17.264 1.88118 17.084C1.70114 16.904 1.6 16.6598 1.6 16.4052V8.79958L9.6 1.59958L17.6 8.79958V16.4052Z" fill="#898989"/>
</svg>
