<svg width="52" height="52" viewBox="0 0 52 52" fill="none" xmlns="http://www.w3.org/2000/svg">
<path d="M17.9515 7.43128L8.38802 8.26798C6.62675 8.42207 5.325 9.97343 5.47909 11.7347L6.59469 24.486L22.5338 23.0915L21.4182 10.3402C21.2641 8.57893 19.7128 7.27719 17.9515 7.43128ZM16.2579 15.61L11.4761 16.0284L11.1972 12.8405L15.979 12.4222L16.2579 15.61ZM13.0028 41.5926C12.9712 41.8555 12.9561 42.1235 12.9801 42.3976C13.1727 44.5988 15.1123 46.2264 17.3135 46.0338C19.5147 45.8412 21.1422 43.9016 20.9496 41.7004C20.9257 41.4262 20.8643 41.165 20.7875 40.9115L13.0028 41.5926ZM24.606 10.0613L26.0005 26.0004L6.87359 27.6738L7.84973 38.8312L31.7584 36.7395L29.8061 14.4247C29.5755 11.7884 27.2424 9.83066 24.606 10.0613ZM35.3176 39.6403C35.286 39.9032 35.2709 40.1712 35.2949 40.4453C35.4874 42.6465 37.4271 44.2741 39.6283 44.0815C41.8294 43.8889 43.457 41.9493 43.2644 39.7481C43.2404 39.4739 43.179 39.2127 43.1022 38.9592L35.316 39.6404L35.3176 39.6403ZM34.9462 36.4606L46.1036 35.4844L45.4064 27.5149L34.249 28.491L34.9462 36.4606ZM36.3212 15.4608L33.1334 15.7397L33.9701 25.3032L45.1275 24.327L44.988 22.7331C44.6036 18.3387 40.7156 15.0763 36.3212 15.4608Z" fill="#F87F07"/>
</svg>
