<svg width="1792" height="239" viewBox="0 0 1792 239" fill="none" xmlns="http://www.w3.org/2000/svg">
<path d="M675.387 243.785C633.044 243.785 599.287 207.831 599.287 163.261C599.287 118.691 633.044 82.143 675.387 82.143C702.037 82.143 715.954 93.137 724.245 109.777V85.4115H763.924V239.922H725.134V214.665C716.843 232.196 702.925 243.785 675.387 243.785ZM639.262 162.964C639.262 186.438 656.436 207.534 681.902 207.534C708.255 207.534 725.134 187.329 725.134 163.261C725.134 139.193 708.255 118.394 681.902 118.394C656.436 118.394 639.262 138.896 639.262 162.964Z" fill="white"/>
<path d="M1415.01 239.922L1349.05 166.529V239.922H1309.08V81.5487H1349.05V147.81L1410.94 81.5487H1467.79L1391.1 157.318L1467.79 239.922H1415.01Z" fill="white"/>
<path fill-rule="evenodd" clip-rule="evenodd" d="M1035.05 243.785C987.373 243.785 955.393 207.534 955.393 162.964C955.393 118.394 988.854 81.5487 1035.05 81.5487C1081.24 81.5487 1114.7 118.394 1114.7 162.964C1114.7 165.297 1114.61 167.608 1114.44 169.891C1114.25 172.263 1113.96 174.707 1113.52 177.226H996.849C1001.29 195.352 1014.91 208.128 1035.05 208.128C1049.05 208.128 1060.49 202.206 1068.09 193.58H1109.27C1098.23 223.011 1071.14 243.785 1035.05 243.785ZM996.849 147.216H1072.95C1068.51 129.982 1054 116.016 1034.45 116.016C1015.5 116.016 1001.29 128.793 996.849 147.216Z" fill="white"/>
<path d="M471.729 243.785H432.339V89.7649H577.677V243.785H538.286V129.292H471.729V243.785Z" fill="white"/>
<path d="M1289.43 81.6223V121.15H1228.3V243.82H1188.91V121.15H1127.79V81.6223H1289.43Z" fill="white"/>
<path d="M1686.05 239.922H1646.66V81.6223H1686.05V139.059H1752.61V81.6223H1792V239.922H1752.61V178.587H1686.05V239.922Z" fill="white"/>
<path d="M1482.31 239.922V81.5487H1521.7V188.128L1588.25 81.6223H1627.65V239.922H1588.25V154.053L1535.96 239.922H1482.31Z" fill="white"/>
<path d="M932.873 85.9022V239.922H893.482V151.327L834.396 239.922H787.535L893.482 85.9022H932.873Z" fill="white"/>
<path d="M52.7229 243.161C66.8078 245.888 77.8007 256.881 80.5273 270.966L87.255 305.713C78.4269 301.154 69.937 295.726 61.9053 289.43L57.4202 266.269L34.248 261.778C27.9496 253.746 22.5196 245.256 17.959 236.428L52.7229 243.161Z" fill="white"/>
<path d="M86.3698 209.514C100.455 212.241 111.448 223.234 114.174 237.319L130.31 320.67C122.374 319.124 114.537 316.972 106.864 314.231L91.067 232.622L9.43842 216.816C6.696 209.144 4.54315 201.308 2.99636 193.372L86.3698 209.514Z" fill="white"/>
<path d="M120.073 175.811C134.158 178.538 145.151 189.53 147.878 203.615L171.061 323.373C163.651 323.812 156.221 323.743 148.822 323.17L124.77 198.918L0.487975 174.858C-0.0862589 167.46 -0.153109 160.029 0.284363 152.619L120.073 175.811Z" fill="white"/>
<path d="M268.034 283.864C262.415 288.742 256.544 293.171 250.464 297.153L194.284 240.933L208.933 316.592C201.948 318.72 194.849 320.362 187.689 321.53L170.34 231.909C167.029 214.806 187.896 203.661 200.192 215.965L268.034 283.864Z" fill="white"/>
<path d="M107.676 123.449C119.979 135.744 108.834 156.611 91.7316 153.3L2.13101 135.954C3.29943 128.794 4.94487 121.696 7.07426 114.71L82.7076 129.356L26.5079 73.1959C30.4891 67.1164 34.916 61.2426 39.7936 55.623L107.676 123.449Z" fill="white"/>
<path d="M151.882 100.271C152.58 117.689 130.287 125.574 119.991 111.551L62.8498 33.7148C68.6545 29.18 74.6947 25.0944 80.9232 21.4557L129.581 87.7372L126.204 3.49252C133.354 1.84029 140.591 0.674194 147.863 0L151.882 100.271Z" fill="white"/>
<path d="M323.66 175.797C322.986 183.07 321.82 190.306 320.167 197.456L235.926 194.082L302.201 242.734C298.563 248.963 294.477 255.003 289.942 260.808L212.112 203.672C198.089 193.376 205.975 171.084 223.392 171.781L323.66 175.797Z" fill="white"/>
<path d="M200.797 110.335C189.829 123.939 167.944 115.184 169.489 97.8104L178.188 0.00848385C185.424 0.688609 192.619 1.86444 199.725 3.51514L192.375 86.1677L244.605 21.3821C250.818 25.0243 256.832 29.1231 262.613 33.6668L200.797 110.335Z" fill="white"/>
<path d="M290.053 61.1177C294.593 66.9004 298.684 72.9198 302.323 79.1346L237.557 131.35L320.156 124.003C321.804 131.11 322.977 138.306 323.654 145.543L225.918 154.239C208.544 155.785 199.786 133.897 213.39 122.928L290.053 61.1177Z" fill="white"/>
</svg>
