<svg width="200" height="36" viewBox="0 0 200 36" fill="none" xmlns="http://www.w3.org/2000/svg">
<path d="M75.1219 27.1151C70.4121 27.1151 66.6574 23.1161 66.6574 18.1586C66.6574 13.2011 70.4121 9.13593 75.1219 9.13593C78.0862 9.13593 79.6342 10.3588 80.5564 12.2096V9.49948H84.9698V26.6855H80.6552V23.8762C79.733 25.8261 78.185 27.1151 75.1219 27.1151ZM71.1037 18.1255C71.1037 20.7365 73.014 23.083 75.8465 23.083C78.7778 23.083 80.6552 20.8356 80.6552 18.1586C80.6552 15.4815 78.7778 13.168 75.8465 13.168C73.014 13.168 71.1037 15.4485 71.1037 18.1255Z" fill="black"/>
<path d="M157.39 26.6855L150.053 18.5221V26.6855H145.607V9.06982H150.053V16.44L156.937 9.06982H163.26L154.73 17.4976L163.26 26.6855H157.39Z" fill="black"/>
<path fill-rule="evenodd" clip-rule="evenodd" d="M115.126 27.1151C109.824 27.1151 106.267 23.083 106.267 18.1255C106.267 13.168 109.988 9.06982 115.126 9.06982C120.265 9.06982 123.986 13.168 123.986 18.1255C123.986 18.385 123.977 18.642 123.957 18.8961C123.937 19.1598 123.904 19.4317 123.855 19.7119H110.878C111.372 21.728 112.887 23.1491 115.126 23.1491C116.684 23.1491 117.956 22.4904 118.802 21.5309H123.382C122.155 24.8044 119.141 27.1151 115.126 27.1151ZM110.878 16.3739H119.342C118.848 14.457 117.234 12.9036 115.061 12.9036C112.953 12.9036 111.372 14.3248 110.878 16.3739Z" fill="black"/>
<path d="M52.4693 27.1151H48.0879V9.9837H64.2537V27.1151H59.8723V14.3803H52.4693V27.1151Z" fill="black"/>
<path d="M143.421 9.07801V13.4746H136.622V27.119H132.241V13.4746H125.442V9.07801H143.421Z" fill="black"/>
<path d="M187.537 26.6855H183.156V9.07801H187.537V15.4667H194.94V9.07801H199.322V26.6855H194.94V19.8632H187.537V26.6855Z" fill="black"/>
<path d="M164.875 26.6855V9.06982H169.256V20.9245L176.659 9.07801H181.041V26.6855H176.659V17.1343L170.843 26.6855H164.875Z" fill="black"/>
<path d="M103.762 9.55406V26.6855H99.3804V16.8311L92.8083 26.6855H87.596L99.3804 9.55406H103.762Z" fill="black"/>
<path d="M5.86432 27.0465C7.43096 27.3498 8.65369 28.5725 8.95697 30.1391L9.70528 34.004C8.72334 33.4969 7.77902 32.8932 6.88566 32.1928L6.38678 29.6167L3.80937 29.1172C3.10881 28.2238 2.50483 27.2795 1.99756 26.2976L5.86432 27.0465Z" fill="black"/>
<path d="M9.60682 23.304C11.1735 23.6073 12.3962 24.83 12.6995 26.3966L14.4943 35.6677C13.6115 35.4957 12.7398 35.2564 11.8864 34.9514L10.1293 25.8742L1.04983 24.1162C0.744789 23.2628 0.505329 22.3912 0.333282 21.5085L9.60682 23.304Z" fill="black"/>
<path d="M13.3556 19.5552C14.9223 19.8585 16.145 21.0812 16.4483 22.6478L19.0269 35.9684C18.2027 36.0171 17.3762 36.0095 16.5533 35.9457L13.8781 22.1254L0.054277 19.4492C-0.00959449 18.6263 -0.0170301 17.7998 0.0316294 16.9756L13.3556 19.5552Z" fill="black"/>
<path d="M29.8132 31.5738C29.1881 32.1163 28.5351 32.609 27.8589 33.0519L21.61 26.7986L23.2394 35.2141C22.4624 35.4508 21.6729 35.6334 20.8765 35.7633L18.9467 25.7949C18.5785 23.8926 20.8995 22.6529 22.2671 24.0215L29.8132 31.5738Z" fill="black"/>
<path d="M11.9766 13.731C13.3452 15.0986 12.1055 17.4196 10.2032 17.0514L0.23703 15.1219C0.366992 14.3256 0.550013 13.536 0.786862 12.7591L9.19948 14.3881L2.94845 8.14147C3.39127 7.46526 3.88366 6.81193 4.4262 6.18686L11.9766 13.731Z" fill="black"/>
<path d="M16.8937 11.153C16.9713 13.0903 14.4917 13.9675 13.3465 12.4077L6.99072 3.75005C7.63636 3.24565 8.30822 2.79122 9.001 2.38648L14.4131 9.75888L14.0376 0.388468C14.8328 0.204692 15.6377 0.0749896 16.4467 0L16.8937 11.153Z" fill="black"/>
<path d="M36.0003 19.5536C35.9254 20.3626 35.7956 21.1675 35.6119 21.9628L26.2418 21.5875L33.6135 26.999C33.2088 27.6918 32.7544 28.3636 32.25 29.0093L23.5929 22.6541C22.0333 21.5089 22.9104 19.0294 24.8477 19.107L36.0003 19.5536Z" fill="black"/>
<path d="M22.3344 12.2724C21.1144 13.7856 18.6802 12.8118 18.8521 10.8793L19.8196 0.000943647C20.6245 0.076593 21.4249 0.207379 22.2152 0.390984L21.3977 9.58431L27.2071 2.3783C27.8982 2.78342 28.5672 3.23932 29.2102 3.74471L22.3344 12.2724Z" fill="black"/>
<path d="M32.2622 6.79803C32.7672 7.44124 33.2224 8.11077 33.6271 8.80202L26.4233 14.6099L35.6106 13.7927C35.7939 14.5832 35.9244 15.3836 35.9997 16.1886L25.1286 17.1558C23.1961 17.3277 22.222 14.8931 23.7351 13.6731L32.2622 6.79803Z" fill="black"/>
</svg>
