<svg width="1183" height="1216" viewBox="0 0 1183 1216" fill="none" xmlns="http://www.w3.org/2000/svg">
<mask id="mask0_634_5668" style="mask-type:alpha" maskUnits="userSpaceOnUse" x="0" y="-62" width="1411" height="1278">
<rect y="-62" width="1411" height="1278" fill="url(#paint0_radial_634_5668)"/>
</mask>
<g mask="url(#mask0_634_5668)">
<mask id="mask1_634_5668" style="mask-type:alpha" maskUnits="userSpaceOnUse" x="127" y="-157" width="1547" height="1546">
<ellipse cx="900.177" cy="615.727" rx="773.177" ry="772.727" fill="#D9D9D9"/>
</mask>
<g mask="url(#mask1_634_5668)">
<path d="M583.819 673.018V673.017C599.232 676.001 611.259 688.028 614.243 703.44V703.441L747.384 1402.83C738.007 1397.92 728.977 1392.12 720.42 1385.43L589.608 698.049L589.545 697.715L589.211 697.651L-1064.57 382.357C-1071.26 373.8 -1077.07 364.772 -1081.98 355.395L583.819 673.018ZM658.48 598.353V598.354C673.654 601.291 685.546 612.992 688.761 628.06L688.907 628.78L827.526 1340.2C819.651 1340.64 811.756 1340.57 803.893 1339.97L664.271 623.384L664.207 623.052L663.875 622.988L-1288.11 249.605C-1288.7 241.742 -1288.78 233.846 -1288.34 225.97L658.48 598.353ZM621.118 635.715V635.716C636.291 638.653 648.184 650.354 651.398 665.422L651.545 666.143L772.756 1301.61C764.324 1299.93 755.993 1297.64 747.832 1294.74L626.91 660.748L626.846 660.414L626.512 660.351L-1188.54 314.388C-1191.44 306.228 -1193.73 297.897 -1195.41 289.466L621.118 635.715ZM714.792 659.954C711.215 641.473 733.764 629.442 747.042 642.729L1383.89 1280.36C1377.9 1285.52 1371.66 1290.23 1365.21 1294.48L741.2 669.703L740.355 670.151L860.504 1289.29C853.077 1291.53 845.536 1293.28 837.931 1294.55L714.792 659.954ZM760.556 628.083C745.897 616.854 754.419 593.146 773.097 593.895H773.098L1383.51 617.809C1382.77 625.535 1381.53 633.225 1379.79 640.825L787.028 617.617L786.713 618.52L1357.94 1038.46C1354.05 1045.07 1349.71 1051.49 1344.91 1057.67L760.906 628.347L760.556 628.083ZM1372.82 47.4404C1377.62 53.5953 1381.97 59.9932 1385.85 66.5889L788.505 548.184L788.863 549.071L1433.5 490.771C1435.23 498.327 1436.47 505.975 1437.21 513.664L775.867 573.449C757.107 575.116 747.639 551.476 762.341 539.623L1372.82 47.4404ZM644.477 540.164V540.165C657.766 553.443 645.734 575.992 627.253 572.415L-1169.24 224.972C-1167.97 217.367 -1166.22 209.826 -1163.98 202.399L617.056 546.852L617.503 546.006L-156.251 -223.879C-152.003 -230.334 -147.297 -236.577 -142.132 -242.562L644.477 540.164ZM693.34 514.137C694.095 532.961 670.004 541.47 658.887 526.327L169.755 -141.898C175.934 -146.699 182.354 -151.04 188.966 -154.925L668.714 500.521L669.617 500.205L641.878 -193.471C649.478 -195.208 657.166 -196.445 664.892 -197.184L693.34 514.137ZM775.407 -181.943C783.096 -181.199 790.744 -179.956 798.299 -178.22L738.231 498.441L739.119 498.799L1225.69 -104.918C1232.28 -101.031 1238.67 -96.6822 1244.83 -91.875L747.68 524.962C735.826 539.664 712.186 530.196 713.854 511.435L775.407 -181.943Z" stroke="#050200" stroke-opacity="0.1" stroke-miterlimit="1.26047"/>
</g>
<path d="M583.913 672.525C599.527 675.548 611.712 687.733 614.735 703.348L622.195 741.882C612.409 736.83 602.995 730.815 594.092 723.836L589.118 698.142L563.413 693.164C556.431 684.26 550.413 674.847 545.357 665.06L583.913 672.525Z" fill="#F87F07"/>
<path d="M621.214 635.224C636.828 638.247 649.013 650.432 652.036 666.047L669.926 758.453C661.129 756.741 652.44 754.365 643.935 751.327L626.419 660.841L535.906 643.317C532.867 634.813 530.49 626.124 528.775 617.328L621.214 635.224Z" fill="#F87F07"/>
<path d="M658.576 597.862C674.19 600.885 686.376 613.07 689.398 628.684L715.102 761.46C706.888 761.947 698.65 761.87 690.449 761.235L663.781 623.479L525.989 596.803C525.352 588.602 525.277 580.363 525.762 572.149L658.576 597.862Z" fill="#F87F07"/>
<path d="M822.608 717.651C816.377 723.059 809.865 727.97 803.124 732.384L740.846 670.056L757.085 753.934C749.342 756.293 741.474 758.12 733.537 759.415L714.301 660.049C710.631 641.089 733.766 628.735 747.396 642.376L822.608 717.651Z" fill="#F87F07"/>
<path d="M644.831 539.811C658.473 553.441 646.118 576.576 627.158 572.905L527.808 553.673C529.103 545.736 530.932 537.868 533.292 530.125L617.151 546.36L554.837 484.096C559.251 477.356 564.162 470.844 569.57 464.613L644.831 539.811Z" fill="#F87F07"/>
<path d="M693.839 514.116C694.614 533.426 669.899 542.169 658.485 526.623L595.13 440.329C601.565 435.302 608.263 430.774 615.168 426.74L669.117 500.225L665.371 406.817C673.297 404.986 681.32 403.698 689.381 402.951L693.839 514.116Z" fill="#F87F07"/>
<path d="M884.27 597.849C883.522 605.911 882.234 613.935 880.402 621.86L787.009 618.116L860.482 672.057C856.448 678.962 851.917 685.657 846.89 692.092L760.61 628.749C745.064 617.335 753.807 592.62 773.117 593.394L884.27 597.849Z" fill="#F87F07"/>
<path d="M748.069 525.276C735.91 540.357 711.644 530.65 713.356 511.39L722.997 402.969C731.021 403.723 739.001 405.018 746.879 406.848L738.73 498.485L796.633 426.663C803.519 430.7 810.189 435.238 816.596 440.274L748.069 525.276Z" fill="#F87F07"/>
<path d="M847.018 470.712C852.05 477.122 856.583 483.798 860.616 490.687L788.818 548.573L880.393 540.425C882.22 548.304 883.511 556.285 884.262 564.309L775.913 573.947C756.652 575.659 746.945 551.393 762.027 539.234L847.018 470.712Z" fill="#F87F07"/>
</g>
<defs>
<radialGradient id="paint0_radial_634_5668" cx="0" cy="0" r="1" gradientTransform="matrix(645.005 590.913 -652.409 911.24 705.5 577)" gradientUnits="userSpaceOnUse">
<stop offset="0.252629" stop-color="white"/>
<stop offset="0.492934" stop-color="white" stop-opacity="0"/>
</radialGradient>
</defs>
</svg>
