<svg width="663" height="628" viewBox="0 0 663 628" fill="none" xmlns="http://www.w3.org/2000/svg">
<path d="M-80.3482 667.147C-41.7048 674.628 -11.5443 704.788 -4.06363 743.432L14.3946 838.765C-9.82629 826.258 -33.1194 811.365 -55.1554 794.09L-67.4608 730.545L-131.037 718.224C-148.317 696.188 -163.215 672.894 -175.727 648.673L-80.3482 667.147Z" fill="url(#paint0_linear_742_4791)"/>
<path d="M11.9661 574.832C50.6095 582.312 80.77 612.473 88.2507 651.117L132.522 879.802C110.748 875.561 89.2455 869.657 68.1942 862.135L24.8535 638.229L-199.105 594.865C-206.629 573.816 -212.535 552.317 -216.779 530.544L11.9661 574.832Z" fill="url(#paint1_linear_742_4791)"/>
<path d="M104.436 482.361C143.079 489.842 173.239 520.003 180.72 558.647L244.327 887.22C223.996 888.422 203.61 888.234 183.312 886.661L117.323 545.759L-223.661 479.747C-225.237 459.449 -225.42 439.061 -224.22 418.731L104.436 482.361Z" fill="url(#paint2_linear_742_4791)"/>
<path d="M510.384 778.82C494.966 792.203 478.858 804.356 462.179 815.279L308.042 661.033L348.233 868.614C329.068 874.454 309.592 878.957 289.949 882.161L242.348 636.274C233.265 589.351 290.517 558.772 324.25 592.53L510.384 778.82Z" fill="url(#paint3_linear_742_4791)"/>
<path d="M70.421 338.698C104.177 372.432 73.5995 429.684 26.6768 420.601L-219.153 373.008C-215.948 353.364 -211.433 333.889 -205.591 314.723L1.91844 354.906L-152.272 200.823C-141.349 184.143 -129.204 168.028 -115.822 152.609L70.421 338.698Z" fill="url(#paint4_linear_742_4791)"/>
<path d="M191.707 275.106C193.621 322.895 132.458 344.53 104.211 306.057L-52.5639 92.5013C-36.6381 80.0594 -20.0659 68.8501 -2.97737 58.8666L130.521 240.719L121.257 9.58221C140.873 5.04908 160.728 1.84974 180.681 0L191.707 275.106Z" fill="url(#paint5_linear_742_4791)"/>
<path d="M663 482.323C661.15 502.277 657.951 522.131 653.418 541.748L422.291 532.492L604.126 665.975C594.143 683.065 582.934 699.636 570.492 715.562L356.954 558.802C318.482 530.554 340.117 469.391 387.904 471.305L663 482.323Z" fill="url(#paint6_linear_742_4791)"/>
<path d="M325.911 302.72C295.818 340.044 235.775 316.023 240.013 268.356L263.879 0.0232766C283.733 1.88929 303.475 5.11536 322.97 9.64428L302.805 236.413L446.102 58.6649C463.148 68.6576 479.651 79.9033 495.511 92.3694L325.911 302.72Z" fill="url(#paint7_linear_742_4791)"/>
<path d="M570.794 167.685C583.251 183.551 594.477 200.066 604.46 217.117L426.768 360.376L653.387 340.219C657.908 359.718 661.127 379.461 662.984 399.318L394.832 423.177C347.165 427.416 323.137 367.364 360.461 337.271L570.794 167.685Z" fill="url(#paint8_linear_742_4791)"/>
<defs>
<linearGradient id="paint0_linear_742_4791" x1="219" y1="272" x2="219" y2="706.5" gradientUnits="userSpaceOnUse">
<stop stop-color="#EDEDED"/>
<stop offset="1" stop-color="#EDEDED" stop-opacity="0"/>
</linearGradient>
<linearGradient id="paint1_linear_742_4791" x1="219" y1="272" x2="219" y2="706.5" gradientUnits="userSpaceOnUse">
<stop stop-color="#EDEDED"/>
<stop offset="1" stop-color="#EDEDED" stop-opacity="0"/>
</linearGradient>
<linearGradient id="paint2_linear_742_4791" x1="219" y1="272" x2="219" y2="706.5" gradientUnits="userSpaceOnUse">
<stop stop-color="#EDEDED"/>
<stop offset="1" stop-color="#EDEDED" stop-opacity="0"/>
</linearGradient>
<linearGradient id="paint3_linear_742_4791" x1="219" y1="272" x2="219" y2="706.5" gradientUnits="userSpaceOnUse">
<stop stop-color="#EDEDED"/>
<stop offset="1" stop-color="#EDEDED" stop-opacity="0"/>
</linearGradient>
<linearGradient id="paint4_linear_742_4791" x1="219" y1="272" x2="219" y2="706.5" gradientUnits="userSpaceOnUse">
<stop stop-color="#EDEDED"/>
<stop offset="1" stop-color="#EDEDED" stop-opacity="0"/>
</linearGradient>
<linearGradient id="paint5_linear_742_4791" x1="219" y1="272" x2="219" y2="706.5" gradientUnits="userSpaceOnUse">
<stop stop-color="#EDEDED"/>
<stop offset="1" stop-color="#EDEDED" stop-opacity="0"/>
</linearGradient>
<linearGradient id="paint6_linear_742_4791" x1="219" y1="272" x2="219" y2="706.5" gradientUnits="userSpaceOnUse">
<stop stop-color="#EDEDED"/>
<stop offset="1" stop-color="#EDEDED" stop-opacity="0"/>
</linearGradient>
<linearGradient id="paint7_linear_742_4791" x1="219" y1="272" x2="219" y2="706.5" gradientUnits="userSpaceOnUse">
<stop stop-color="#EDEDED"/>
<stop offset="1" stop-color="#EDEDED" stop-opacity="0"/>
</linearGradient>
<linearGradient id="paint8_linear_742_4791" x1="219" y1="272" x2="219" y2="706.5" gradientUnits="userSpaceOnUse">
<stop stop-color="#EDEDED"/>
<stop offset="1" stop-color="#EDEDED" stop-opacity="0"/>
</linearGradient>
</defs>
</svg>
