<svg width="164" height="56" viewBox="0 0 164 56" fill="none" xmlns="http://www.w3.org/2000/svg">
<mask id="path-1-outside-1_786_4136" maskUnits="userSpaceOnUse" x="0" y="0" width="56" height="56" fill="black">
<rect fill="white" width="56" height="56"/>
<path d="M4 28C4 14.7452 14.7452 4 28 4C41.2548 4 52 14.7452 52 28C52 41.2548 41.2548 52 28 52C14.7452 52 4 41.2548 4 28Z"/>
</mask>
<path d="M4 28C4 14.7452 14.7452 4 28 4C41.2548 4 52 14.7452 52 28C52 41.2548 41.2548 52 28 52C14.7452 52 4 41.2548 4 28Z" fill="url(#paint0_linear_786_4136)"/>
<path d="M28 52V48C16.9543 48 8 39.0457 8 28H4H0C0 43.464 12.536 56 28 56V52ZM52 28H48C48 39.0457 39.0457 48 28 48V52V56C43.464 56 56 43.464 56 28H52ZM28 4V8C39.0457 8 48 16.9543 48 28H52H56C56 12.536 43.464 0 28 0V4ZM28 4V0C12.536 0 0 12.536 0 28H4H8C8 16.9543 16.9543 8 28 8V4Z" fill="#FEFCFB" mask="url(#path-1-outside-1_786_4136)"/>
<path fill-rule="evenodd" clip-rule="evenodd" d="M39.4 23.0747C37.8 23.0747 36.36 23.5575 35.16 24.3621V17H31.76V30.5575C31.76 34.7011 35.2 38 39.36 38C43.52 38 47 34.7012 47 30.5172C47 26.3333 43.6 23.0747 39.36 23.0747H39.4ZM23.36 31.523L20.28 23.5977H17.92L14.8 31.523L11.68 23.5977H8L13.44 37.5172H15.8L19.08 29.2299L22.36 37.5172H24.72L30.16 23.5977H26.48L23.36 31.523ZM39.36 34.7012C37.08 34.7012 35.12 32.8908 35.12 30.5575C35.12 28.2241 36.92 26.4138 39.36 26.4138C41.8 26.4138 43.6 28.2644 43.6 30.5575C43.6 32.8506 41.68 34.7012 39.32 34.7012H39.36Z" fill="white"/>
<mask id="path-4-outside-2_786_4136" maskUnits="userSpaceOnUse" x="36" y="0" width="56" height="56" fill="black">
<rect fill="white" x="36" width="56" height="56"/>
<path d="M40 28C40 14.7452 50.7452 4 64 4C77.2548 4 88 14.7452 88 28C88 41.2548 77.2548 52 64 52C50.7452 52 40 41.2548 40 28Z"/>
</mask>
<path d="M40 28C40 14.7452 50.7452 4 64 4C77.2548 4 88 14.7452 88 28C88 41.2548 77.2548 52 64 52C50.7452 52 40 41.2548 40 28Z" fill="#FDFD00"/>
<path d="M64 52V48C52.9543 48 44 39.0457 44 28H40H36C36 43.464 48.536 56 64 56V52ZM88 28H84C84 39.0457 75.0457 48 64 48V52V56C79.464 56 92 43.464 92 28H88ZM64 4V8C75.0457 8 84 16.9543 84 28H88H92C92 12.536 79.464 0 64 0V4ZM64 4V0C48.536 0 36 12.536 36 28H40H44C44 16.9543 52.9543 8 64 8V4Z" fill="#FEFCFB" mask="url(#path-4-outside-2_786_4136)"/>
<path d="M59.8042 7L40 37.3333V49H44.028L60.1399 24.3333L56.4476 38.6667L64.8392 40.3333L72.8951 30.3333L70.2098 41.6667L88 38.3333V31L79.2727 33L81.958 21.3333L74.5734 17L66.1818 27.3333L69.8741 13.6667L59.8042 7Z" fill="#050200"/>
<g clip-path="url(#clip0_786_4136)">
<mask id="path-7-outside-3_786_4136" maskUnits="userSpaceOnUse" x="72" y="0" width="56" height="56" fill="black">
<rect fill="white" x="72" width="56" height="56"/>
<path d="M76 28C76 14.7452 86.7452 4 100 4C113.255 4 124 14.7452 124 28C124 41.2548 113.255 52 100 52C86.7452 52 76 41.2548 76 28Z"/>
</mask>
<path d="M76 28C76 14.7452 86.7452 4 100 4C113.255 4 124 14.7452 124 28C124 41.2548 113.255 52 100 52C86.7452 52 76 41.2548 76 28Z" fill="#005BFF"/>
<path d="M99.9984 54.5L99.0003 25.5L108 21.5L128 43.5V54.5H99.9984Z" fill="#FF034B"/>
<path fill-rule="evenodd" clip-rule="evenodd" d="M78.2891 29.0609C80.9716 28.4773 83.7932 29.9884 84.9451 32.6254C86.5015 36.1882 84.5882 40.2142 80.9632 41.0027C78.2807 41.5863 75.4588 40.0756 74.3072 37.4385C72.7504 33.8754 74.6642 29.8497 78.2891 29.0609ZM81.023 37.9807C82.2815 37.3724 82.9773 35.9079 82.6908 34.472C82.2699 32.3657 80.0758 31.1905 78.2294 32.0832C76.9709 32.6915 76.2747 34.1561 76.5616 35.5919C76.9824 37.6982 79.1766 38.8734 81.023 37.9807ZM94.4003 24.0172C94.7083 23.9159 95.0053 24.2282 94.9037 24.5468L91.8461 34.1614L96.2436 32.7152C97.0451 32.4516 97.9279 33.0089 98.0484 33.9358C98.1366 34.6151 97.7087 35.2398 97.087 35.4443L88.2763 38.3419C87.9712 38.4423 87.677 38.1331 87.7774 37.8172L90.8377 28.1957L87.2282 29.3828C86.6068 29.5871 85.8916 29.3383 85.5593 28.739C85.1062 27.9218 85.4858 26.9489 86.2873 26.6853L94.4003 24.0172ZM121.506 15.1372C122.282 14.6772 123.238 15.0995 123.516 15.945L126.594 25.3064C126.702 25.6329 126.402 25.9336 126.091 25.8109L117.177 22.2875L118.675 26.8438C118.953 27.6893 118.435 28.5965 117.537 28.6869C116.893 28.7518 116.289 28.3013 116.077 27.6581L113.01 18.3305C112.902 18.004 113.202 17.7034 113.513 17.8261L122.427 21.3498L120.941 16.8317C120.73 16.1885 120.949 15.4671 121.506 15.1372ZM103.187 20.84C107.472 19.4308 111.802 20.8908 112.857 24.1013C113.913 27.3115 111.295 31.0563 107.01 32.4655C102.726 33.8746 98.3964 32.4146 97.3407 29.2044C96.2848 25.9939 98.9023 22.2491 103.187 20.84ZM99.9268 28.3538C100.408 29.8169 103.158 30.726 106.118 29.7524C109.079 28.7789 110.752 26.415 110.271 24.9519C109.79 23.4888 107.04 22.5794 104.079 23.553C101.119 24.5266 99.4456 26.8904 99.9268 28.3538Z" fill="white"/>
</g>
<path d="M100 52V48C88.9543 48 80 39.0457 80 28H76H72C72 43.464 84.536 56 100 56V52ZM124 28H120C120 39.0457 111.046 48 100 48V52V56C115.464 56 128 43.464 128 28H124ZM100 4V8C111.046 8 120 16.9543 120 28H124H128C128 12.536 115.464 0 100 0V4ZM100 4V0C84.536 0 72 12.536 72 28H76H80C80 16.9543 88.9543 8 100 8V4Z" fill="#FEFCFB" mask="url(#path-7-outside-3_786_4136)"/>
<mask id="path-10-outside-4_786_4136" maskUnits="userSpaceOnUse" x="108" y="0" width="56" height="56" fill="black">
<rect fill="white" x="108" width="56" height="56"/>
<path d="M112 28C112 14.7452 122.745 4 136 4C149.255 4 160 14.7452 160 28C160 41.2548 149.255 52 136 52C122.745 52 112 41.2548 112 28Z"/>
</mask>
<path d="M112 28C112 14.7452 122.745 4 136 4C149.255 4 160 14.7452 160 28C160 41.2548 149.255 52 136 52C122.745 52 112 41.2548 112 28Z" fill="#F87F07"/>
<path d="M136 52V48C124.954 48 116 39.0457 116 28H112H108C108 43.464 120.536 56 136 56V52ZM160 28H156C156 39.0457 147.046 48 136 48V52V56C151.464 56 164 43.464 164 28H160ZM136 4V8C147.046 8 156 16.9543 156 28H160H164C164 12.536 151.464 0 136 0V4ZM136 4V0C120.536 0 108 12.536 108 28H112H116C116 16.9543 124.954 8 136 8V4Z" fill="#FEFCFB" mask="url(#path-10-outside-4_786_4136)"/>
<path d="M130.581 34.6758C129.697 34.6758 128.911 34.5264 128.226 34.2275C127.54 33.9229 126.998 33.501 126.6 32.9619C126.201 32.4229 125.991 31.7988 125.967 31.0898H127.953C127.983 31.4766 128.115 31.8105 128.349 32.0918C128.583 32.373 128.891 32.5928 129.272 32.751C129.659 32.9033 130.089 32.9795 130.564 32.9795C131.079 32.9795 131.536 32.8887 131.935 32.707C132.333 32.5254 132.644 32.2764 132.867 31.96C133.095 31.6377 133.209 31.2656 133.209 30.8438C133.209 30.4043 133.098 30.0176 132.875 29.6836C132.653 29.3438 132.327 29.0801 131.9 28.8926C131.472 28.7051 130.956 28.6113 130.353 28.6113H129.237V26.9941H130.353C130.833 26.9941 131.258 26.9062 131.627 26.7305C131.996 26.5547 132.284 26.3115 132.489 26.001C132.7 25.6904 132.805 25.3242 132.805 24.9023C132.805 24.498 132.714 24.1465 132.533 23.8477C132.351 23.543 132.096 23.3086 131.768 23.1445C131.44 22.9746 131.053 22.8896 130.608 22.8896C130.18 22.8896 129.782 22.9658 129.412 23.1182C129.043 23.2705 128.742 23.4902 128.507 23.7773C128.279 24.0586 128.159 24.4014 128.147 24.8057H126.24C126.257 24.0967 126.462 23.4756 126.855 22.9424C127.253 22.4033 127.781 21.9844 128.437 21.6855C129.099 21.3809 129.831 21.2285 130.634 21.2285C131.472 21.2285 132.196 21.3926 132.805 21.7207C133.42 22.043 133.895 22.4766 134.229 23.0215C134.563 23.5605 134.73 24.1494 134.73 24.7881C134.73 25.5322 134.525 26.1592 134.115 26.6689C133.704 27.1729 133.157 27.5156 132.471 27.6973V27.7939C133.338 27.9287 134.009 28.2744 134.484 28.8311C134.964 29.3877 135.204 30.0791 135.204 30.9053C135.204 31.626 135.002 32.2705 134.598 32.8389C134.2 33.4072 133.652 33.8555 132.954 34.1836C132.263 34.5117 131.472 34.6758 130.581 34.6758ZM140.382 33.665V25.0254H142.095V33.665H140.382ZM136.91 30.2109V28.4795H145.558V30.2109H136.91Z" fill="white"/>
<defs>
<linearGradient id="paint0_linear_786_4136" x1="4" y1="52" x2="52" y2="4" gradientUnits="userSpaceOnUse">
<stop stop-color="#7907FA"/>
<stop offset="1" stop-color="#F645D9"/>
</linearGradient>
<clipPath id="clip0_786_4136">
<path d="M76 28C76 14.7452 86.7452 4 100 4C113.255 4 124 14.7452 124 28C124 41.2548 113.255 52 100 52C86.7452 52 76 41.2548 76 28Z" fill="white"/>
</clipPath>
</defs>
</svg>
