<svg width="282" height="51" viewBox="0 0 282 51" fill="none" xmlns="http://www.w3.org/2000/svg">
<g clip-path="url(#clip0_7057_13947)">
<path d="M106.283 38.3633C99.6196 38.3633 94.3075 32.7055 94.3075 25.6917C94.3075 18.6779 99.6196 12.9265 106.283 12.9265C110.477 12.9265 112.667 14.6566 113.972 17.2751V13.4409H120.216V37.7555H114.111V33.781C112.807 36.5397 110.617 38.3633 106.283 38.3633ZM100.598 25.6449C100.598 29.3389 103.301 32.6588 107.308 32.6588C111.455 32.6588 114.111 29.4792 114.111 25.6917C114.111 21.9042 111.455 18.6311 107.308 18.6311C103.301 18.6311 100.598 21.8575 100.598 25.6449Z" fill="white"/>
<path d="M222.675 37.7555L212.295 26.206V37.7555H206.005V12.833H212.295V23.2602L222.034 12.833H230.981L218.912 24.7565L230.981 37.7555H222.675Z" fill="white"/>
<path fill-rule="evenodd" clip-rule="evenodd" d="M162.881 38.3633C155.379 38.3633 150.347 32.6588 150.347 25.6449C150.347 18.6311 155.612 12.833 162.881 12.833C170.151 12.833 175.416 18.6311 175.416 25.6449C175.416 26.0121 175.402 26.3757 175.375 26.7351C175.346 27.1082 175.299 27.493 175.23 27.8894H156.87C157.569 30.7416 159.713 32.7523 162.881 32.7523C165.084 32.7523 166.885 31.8203 168.081 30.4628H174.561C172.825 35.0942 168.561 38.3633 162.881 38.3633ZM156.87 23.1667H168.846C168.147 20.4547 165.864 18.257 162.788 18.257C159.806 18.257 157.569 20.2677 156.87 23.1667Z" fill="white"/>
<path d="M74.2342 38.3633H68.0355V14.1259H90.9068V38.3633H84.708V20.3462H74.2342V38.3633Z" fill="white"/>
<path d="M202.912 12.8446V19.0648H193.293V38.3689H187.095V19.0648H177.476V12.8446H202.912Z" fill="white"/>
<path d="M265.327 37.7555H259.129V12.8446H265.327V21.8832H275.801V12.8446H282V37.7555H275.801V28.1034H265.327V37.7555Z" fill="white"/>
<path d="M233.265 37.7555V12.833H239.464V29.6049L249.937 12.8446H256.136V37.7555H249.937V24.2426L241.708 37.7555H233.265Z" fill="white"/>
<path d="M146.803 13.5181V37.7555H140.604V23.8136L131.306 37.7555H123.931L140.604 13.5181H146.803Z" fill="white"/>
<path d="M8.2968 38.2652C10.5133 38.6943 12.2432 40.4242 12.6723 42.6407L13.731 48.1087C12.3417 47.3913 11.0057 46.5371 9.74179 45.5462L9.03598 41.9015L5.38947 41.1948C4.39832 39.9309 3.54381 38.5949 2.82614 37.2056L8.2968 38.2652Z" fill="white"/>
<path d="M13.5917 32.9704C15.8082 33.3994 17.5381 35.1293 17.9671 37.3458L20.5064 50.4624C19.2575 50.2191 18.0242 49.8805 16.8168 49.4491L14.3309 36.6066L1.48529 34.1194C1.05372 32.9121 0.714937 31.679 0.471526 30.4302L13.5917 32.9704Z" fill="white"/>
<path d="M18.8955 27.6666C21.1119 28.0957 22.8418 29.8256 23.2709 32.042L26.9192 50.8878C25.7531 50.9568 24.5838 50.946 23.4196 50.8558L19.6346 31.3029L0.0767907 27.5166C-0.0135742 26.3524 -0.0240941 25.183 0.0447491 24.017L18.8955 27.6666Z" fill="white"/>
<path d="M42.1795 44.6704C41.2951 45.438 40.3713 46.1351 39.4146 46.7616L30.5737 37.9145L32.879 49.8207C31.7797 50.1556 30.6627 50.4139 29.5359 50.5977L26.8057 36.4945C26.2847 33.8031 29.5685 32.0492 31.5034 33.9854L42.1795 44.6704Z" fill="white"/>
<path d="M16.9445 19.4265C18.8806 21.3614 17.1268 24.6452 14.4354 24.1242L0.335349 21.3944C0.519218 20.2677 0.778155 19.1507 1.11325 18.0514L13.0154 20.3562L4.17144 11.5185C4.79796 10.5618 5.49459 9.63748 6.26216 8.75314L16.9445 19.4265Z" fill="white"/>
<path d="M23.9011 15.7791C24.0109 18.5201 20.5028 19.7611 18.8826 17.5543L9.89043 5.30555C10.8039 4.59193 11.7544 3.949 12.7346 3.37638L20.3916 13.8068L19.8603 0.549602C20.9854 0.289598 22.1242 0.106095 23.2687 0L23.9011 15.7791Z" fill="white"/>
<path d="M50.9331 27.6644C50.827 28.8089 50.6435 29.9476 50.3835 31.0728L37.1267 30.5419L47.5562 38.198C46.9836 39.1782 46.3407 40.1287 45.6271 41.0422L33.3792 32.0509C31.1725 30.4307 32.4134 26.9226 35.1544 27.0324L50.9331 27.6644Z" fill="white"/>
<path d="M31.5986 17.363C29.8726 19.5037 26.4287 18.126 26.6718 15.392L28.0407 0.00133507C29.1794 0.108363 30.3118 0.293399 31.43 0.553162L30.2733 13.5598L38.4925 3.36481C39.4702 3.93796 40.4167 4.58297 41.3264 5.29799L31.5986 17.363Z" fill="white"/>
<path d="M45.6444 9.61782C46.3589 10.5278 47.0028 11.4751 47.5754 12.4531L37.3835 20.6699L50.3817 19.5138C50.641 20.6322 50.8256 21.7646 50.9322 22.9035L35.5518 24.272C32.8177 24.5151 31.4396 21.0707 33.5803 19.3447L45.6444 9.61782Z" fill="white"/>
</g>
<defs>
<clipPath id="clip0_7057_13947">
<rect width="282" height="51" fill="white"/>
</clipPath>
</defs>
</svg>
