<svg width="242" height="69" viewBox="0 0 242 69" fill="none" xmlns="http://www.w3.org/2000/svg">
<path d="M96.7686 44.1365C92.0616 44.3009 88.1696 40.4353 87.9966 35.4808C87.8236 30.5264 91.4342 26.3327 96.1411 26.1683C99.1036 26.0648 100.693 27.2329 101.68 29.0504L101.585 26.3419L105.996 26.1879L106.595 43.3634L102.283 43.514L102.185 40.7065C101.332 42.6874 99.8298 44.0296 96.7686 44.1365ZM92.4391 35.2926C92.5302 37.902 94.5212 40.1804 97.352 40.0816C100.282 39.9793 102.079 37.6677 101.986 34.9923C101.892 32.3169 99.9355 30.0703 97.006 30.1726C94.1752 30.2715 92.3457 32.6172 92.4391 35.2926Z" fill="white"/>
<path d="M178.971 40.836L171.354 32.9337L171.639 41.0921L167.195 41.2472L166.581 23.6423L171.024 23.4872L171.282 30.8528L177.904 23.2469L184.224 23.0262L175.992 31.7465L184.838 40.6311L178.971 40.836Z" fill="white"/>
<path fill-rule="evenodd" clip-rule="evenodd" d="M136.749 42.7404C131.449 42.9254 127.754 39.0199 127.581 34.0655C127.408 29.111 130.984 24.8854 136.119 24.7061C141.254 24.5268 145.116 28.4926 145.289 33.447C145.298 33.7064 145.298 33.9636 145.287 34.2181C145.276 34.4824 145.253 34.7554 145.213 35.0371L132.244 35.49C132.808 37.4875 134.372 38.8549 136.61 38.7768C138.166 38.7224 139.415 38.0197 140.227 37.0313L144.805 36.8714C143.692 40.1858 140.761 42.6003 136.749 42.7404ZM132.128 32.1539L140.587 31.8585C140.027 29.9601 138.359 28.464 136.187 28.5398C134.08 28.6134 132.55 30.0889 132.128 32.1539Z" fill="white"/>
<path d="M74.1297 44.9271L69.751 45.08L69.1531 27.959L85.3091 27.3948L85.907 44.5158L81.5283 44.6687L81.0838 31.9416L73.6853 32.2L74.1297 44.9271Z" fill="white"/>
<path d="M164.397 23.7268L164.55 28.1207L157.755 28.3579L158.232 41.9941L153.853 42.147L153.377 28.5109L146.582 28.7481L146.429 24.3542L164.397 23.7268Z" fill="white"/>
<path d="M209.1 39.7839L204.722 39.9368L204.107 22.3401L208.486 22.1872L208.709 28.5719L216.107 28.3136L215.884 21.9288L220.263 21.7759L220.878 39.3726L216.499 39.5255L216.261 32.7074L208.862 32.9658L209.1 39.7839Z" fill="white"/>
<path d="M186.452 40.5748L185.837 22.9699L190.216 22.817L190.629 34.6644L197.615 22.5668L201.993 22.4139L202.608 40.0106L198.229 40.1635L197.896 30.6182L192.416 40.3665L186.452 40.5748Z" fill="white"/>
<path d="M124.778 25.5866L125.376 42.7076L120.997 42.8605L120.653 33.0122L114.429 43.0899L109.22 43.2718L120.399 25.7395L124.778 25.5866Z" fill="white"/>
<path d="M27.5498 46.4845C29.126 46.733 30.3907 47.9123 30.7485 49.4674L31.6312 53.3038C30.6322 52.8313 29.6674 52.2608 28.7501 51.5921L28.1616 49.0349L25.5683 48.6257C24.837 47.7573 24.2005 46.8346 23.6592 45.871L27.5498 46.4845Z" fill="white"/>
<path d="M31.1594 42.6137C32.7357 42.8621 34.0003 44.0414 34.3581 45.5965L36.4754 54.7993C35.5871 54.6582 34.7076 54.4495 33.844 54.1745L31.7712 45.1641L22.6359 43.724C22.3013 42.8818 22.0316 42.0191 21.8288 41.143L31.1594 42.6137Z" fill="white"/>
<path d="M34.7751 38.7364C36.3513 38.9848 37.616 40.1641 37.9738 41.7192L41.0157 54.9416C40.1937 55.0191 39.3675 55.0403 38.5429 55.0053L35.3869 41.2867L21.4781 39.0946C21.3856 38.2745 21.3493 37.4487 21.3692 36.6233L34.7751 38.7364Z" fill="white"/>
<path d="M51.642 50.1733C51.0363 50.7373 50.4008 51.2525 49.7405 51.7187L43.2772 45.6873L45.1993 54.0408C44.4311 54.3045 43.6484 54.5145 42.857 54.6721L40.5805 44.7771C40.1461 42.8888 42.4225 41.5689 43.837 42.8889L51.642 50.1733Z" fill="white"/>
<path d="M33.1937 32.9638C34.6091 34.2828 33.4512 36.6457 31.5372 36.3441L21.5098 34.7636C21.6118 33.9632 21.7672 33.1678 21.9768 32.383L30.4411 33.7175L23.9759 27.6928C24.3949 27.0015 24.8641 26.3314 25.3845 25.6878L33.1937 32.9638Z" fill="white"/>
<path d="M38.0177 30.2158C38.1629 32.1492 35.7154 33.1124 34.5165 31.5935L27.8625 23.163C28.4901 22.6363 29.1457 22.1587 29.8239 21.7301L35.4901 28.9091L34.7877 19.5575C35.5761 19.3461 36.376 19.1884 37.1818 19.0852L38.0177 30.2158Z" fill="white"/>
<path d="M57.4059 37.9445C57.3592 38.7556 57.2577 39.5645 57.1018 40.3657L47.7243 40.3177L55.2804 45.4686C54.9001 46.1752 54.4694 46.8624 53.9879 47.5253L45.1143 41.4761C43.5156 40.3861 44.3056 37.8774 46.2445 37.8873L57.4059 37.9445Z" fill="white"/>
<path d="M43.4942 31.1447C42.3278 32.6995 39.8611 31.8112 39.9654 29.8739L40.5527 18.9684C41.3597 19.0159 42.1642 19.1187 42.9604 19.2746L42.4643 28.4909L48.0187 21.0865C48.7234 21.4673 49.408 21.8995 50.0682 22.3822L43.4942 31.1447Z" fill="white"/>
<path d="M53.2249 25.3271C53.7521 25.9523 54.2303 26.6056 54.6589 27.2823L47.6622 33.338L56.8154 32.2006C57.0262 32.9843 57.1845 33.7796 57.2879 34.5815L46.4571 35.9276C44.5318 36.1668 43.4733 33.7677 44.943 32.4956L53.2249 25.3271Z" fill="white"/>
</svg>
