<svg width="331" height="295" viewBox="0 0 331 295" fill="none" xmlns="http://www.w3.org/2000/svg">
<path d="M110.444 318.376C139.948 324.087 162.976 347.115 168.688 376.62L182.781 449.409C164.288 439.859 146.503 428.488 129.679 415.298L120.283 366.781L71.7424 357.373C58.5486 340.549 47.1738 322.764 37.6204 304.271L110.444 318.376Z" fill="url(#paint0_linear_6008_2971)"/>
<path d="M180.927 247.892C210.432 253.603 233.46 276.632 239.171 306.137L272.973 480.741C256.348 477.503 239.931 472.995 223.858 467.252L190.767 296.297L19.7715 263.188C14.0267 247.116 9.51695 230.701 6.27676 214.078L180.927 247.892Z" fill="url(#paint1_linear_6008_2971)"/>
<path d="M251.529 177.29C281.033 183.001 304.061 206.029 309.773 235.534L358.337 486.404C342.815 487.322 327.25 487.179 311.751 485.978L261.368 225.695L1.02221 175.293C-0.180694 159.795 -0.320731 144.229 0.595681 128.707L251.529 177.29Z" fill="url(#paint2_linear_6008_2971)"/>
<path d="M561.476 403.64C549.704 413.858 537.405 423.137 524.67 431.477L406.985 313.708L437.671 472.198C423.038 476.657 408.169 480.096 393.17 482.542L356.827 294.804C349.891 258.977 393.604 235.63 419.36 261.404L561.476 403.64Z" fill="url(#paint3_linear_6008_2971)"/>
<path d="M225.558 67.6006C251.331 93.3571 227.985 137.07 192.159 130.134L4.46402 93.7966C6.91161 78.7979 10.3585 63.9286 14.8191 49.2955L173.255 79.9759L55.5285 -37.669C63.8684 -50.4042 73.1417 -62.7086 83.3593 -74.4807L225.558 67.6006Z" fill="url(#paint4_linear_6008_2971)"/>
<path d="M318.161 19.0475C319.623 55.5346 272.924 72.0537 251.357 42.6783L131.657 -120.374C143.817 -129.874 156.47 -138.432 169.517 -146.055L271.445 -7.20772L264.372 -183.684C279.349 -187.145 294.508 -189.588 309.743 -191L318.161 19.0475Z" fill="url(#paint5_linear_6008_2971)"/>
<path d="M678 177.26C676.588 192.495 674.145 207.654 670.684 222.632L494.215 215.565L633.049 317.481C625.426 330.529 616.869 343.181 607.369 355.341L444.33 235.653C414.956 214.085 431.474 167.387 467.96 168.848L678 177.26Z" fill="url(#paint6_linear_6008_2971)"/>
<path d="M420.628 40.131C397.651 68.6281 351.808 50.288 355.044 13.8936L373.266 -190.982C388.425 -189.557 403.498 -187.094 418.383 -183.636L402.986 -10.4955L512.396 -146.209C525.411 -138.579 538.011 -129.993 550.12 -120.475L420.628 40.131Z" fill="url(#paint7_linear_6008_2971)"/>
<path d="M607.6 -62.9704C617.11 -50.8567 625.682 -38.2472 633.304 -25.2285L497.633 84.1523L670.66 68.7617C674.112 83.6496 676.57 98.7237 677.988 113.885L473.25 132.101C436.855 135.338 418.51 89.4875 447.007 66.5106L607.6 -62.9704Z" fill="url(#paint8_linear_6008_2971)"/>
<defs>
<linearGradient id="paint0_linear_6008_2971" x1="339" y1="16.6757" x2="339" y2="348.422" gradientUnits="userSpaceOnUse">
<stop stop-color="#EDEDED"/>
<stop offset="1" stop-color="#EDEDED" stop-opacity="0"/>
</linearGradient>
<linearGradient id="paint1_linear_6008_2971" x1="339" y1="16.6757" x2="339" y2="348.422" gradientUnits="userSpaceOnUse">
<stop stop-color="#EDEDED"/>
<stop offset="1" stop-color="#EDEDED" stop-opacity="0"/>
</linearGradient>
<linearGradient id="paint2_linear_6008_2971" x1="339" y1="16.6757" x2="339" y2="348.422" gradientUnits="userSpaceOnUse">
<stop stop-color="#EDEDED"/>
<stop offset="1" stop-color="#EDEDED" stop-opacity="0"/>
</linearGradient>
<linearGradient id="paint3_linear_6008_2971" x1="339" y1="16.6757" x2="339" y2="348.422" gradientUnits="userSpaceOnUse">
<stop stop-color="#EDEDED"/>
<stop offset="1" stop-color="#EDEDED" stop-opacity="0"/>
</linearGradient>
<linearGradient id="paint4_linear_6008_2971" x1="339" y1="16.6757" x2="339" y2="348.422" gradientUnits="userSpaceOnUse">
<stop stop-color="#EDEDED"/>
<stop offset="1" stop-color="#EDEDED" stop-opacity="0"/>
</linearGradient>
<linearGradient id="paint5_linear_6008_2971" x1="339" y1="16.6757" x2="339" y2="348.422" gradientUnits="userSpaceOnUse">
<stop stop-color="#EDEDED"/>
<stop offset="1" stop-color="#EDEDED" stop-opacity="0"/>
</linearGradient>
<linearGradient id="paint6_linear_6008_2971" x1="339" y1="16.6757" x2="339" y2="348.422" gradientUnits="userSpaceOnUse">
<stop stop-color="#EDEDED"/>
<stop offset="1" stop-color="#EDEDED" stop-opacity="0"/>
</linearGradient>
<linearGradient id="paint7_linear_6008_2971" x1="339" y1="16.6757" x2="339" y2="348.422" gradientUnits="userSpaceOnUse">
<stop stop-color="#EDEDED"/>
<stop offset="1" stop-color="#EDEDED" stop-opacity="0"/>
</linearGradient>
<linearGradient id="paint8_linear_6008_2971" x1="339" y1="16.6757" x2="339" y2="348.422" gradientUnits="userSpaceOnUse">
<stop stop-color="#EDEDED"/>
<stop offset="1" stop-color="#EDEDED" stop-opacity="0"/>
</linearGradient>
</defs>
</svg>
