<svg width="331" height="295" viewBox="0 0 331 295" fill="none" xmlns="http://www.w3.org/2000/svg">
<path d="M-236.556 318.376C-207.052 324.087 -184.024 347.115 -178.312 376.62L-164.219 449.409C-182.712 439.859 -200.497 428.488 -217.321 415.298L-226.717 366.781L-275.258 357.373C-288.451 340.549 -299.826 322.764 -309.38 304.271L-236.556 318.376Z" fill="url(#paint0_linear_6008_6334)"/>
<path d="M-166.073 247.892C-136.568 253.603 -113.54 276.632 -107.829 306.137L-74.0268 480.741C-90.6521 477.503 -107.069 472.995 -123.142 467.252L-156.233 296.297L-327.228 263.188C-332.973 247.116 -337.483 230.701 -340.723 214.078L-166.073 247.892Z" fill="url(#paint1_linear_6008_6334)"/>
<path d="M-95.4715 177.29C-65.9667 183.001 -42.9388 206.029 -37.2271 235.534L11.3374 486.404C-4.18536 487.322 -19.7504 487.179 -35.2485 485.978L-85.6318 225.695L-345.978 175.293C-347.181 159.795 -347.321 144.229 -346.404 128.707L-95.4715 177.29Z" fill="url(#paint2_linear_6008_6334)"/>
<path d="M214.476 403.64C202.704 413.858 190.405 423.137 177.67 431.477L59.985 313.708L90.6711 472.198C76.0382 476.657 61.1685 480.096 46.1703 482.542L9.82684 294.804C2.89145 258.977 46.604 235.63 72.3601 261.404L214.476 403.64Z" fill="url(#paint3_linear_6008_6334)"/>
<path d="M-121.442 67.6006C-95.6686 93.3571 -119.015 137.07 -154.841 130.134L-342.536 93.7966C-340.088 78.7979 -336.642 63.9286 -332.181 49.2955L-173.745 79.9759L-291.471 -37.669C-283.132 -50.4042 -273.858 -62.7086 -263.641 -74.4807L-121.442 67.6006Z" fill="url(#paint4_linear_6008_6334)"/>
<path d="M-28.8388 19.0475C-27.3769 55.5346 -74.0756 72.0537 -95.6433 42.6783L-215.343 -120.374C-203.183 -129.874 -190.53 -138.432 -177.483 -146.055L-75.5551 -7.20772L-82.6283 -183.684C-67.6508 -187.145 -52.4918 -189.588 -37.2567 -191L-28.8388 19.0475Z" fill="url(#paint5_linear_6008_6334)"/>
<path d="M331 177.26C329.588 192.495 327.145 207.654 323.684 222.632L147.215 215.565L286.049 317.481C278.426 330.529 269.869 343.181 260.369 355.341L97.3296 235.653C67.9558 214.085 84.4743 167.387 120.96 168.848L331 177.26Z" fill="url(#paint6_linear_6008_6334)"/>
<path d="M73.6278 40.131C50.6515 68.6281 4.80792 50.288 8.04373 13.8936L26.2658 -190.982C41.4247 -189.557 56.4977 -187.094 71.3827 -183.636L55.9863 -10.4955L165.396 -146.209C178.411 -138.579 191.011 -129.993 203.12 -120.475L73.6278 40.131Z" fill="url(#paint7_linear_6008_6334)"/>
<path d="M260.6 -62.9704C270.11 -50.8567 278.682 -38.2472 286.304 -25.2285L150.633 84.1523L323.66 68.7617C327.112 83.6496 329.57 98.7237 330.988 113.885L126.25 132.101C89.8555 135.338 71.5103 89.4875 100.007 66.5106L260.6 -62.9704Z" fill="url(#paint8_linear_6008_6334)"/>
<defs>
<linearGradient id="paint0_linear_6008_6334" x1="-7.99996" y1="16.6757" x2="-7.99996" y2="348.422" gradientUnits="userSpaceOnUse">
<stop stop-color="#EDEDED"/>
<stop offset="1" stop-color="#EDEDED" stop-opacity="0"/>
</linearGradient>
<linearGradient id="paint1_linear_6008_6334" x1="-7.99996" y1="16.6757" x2="-7.99996" y2="348.422" gradientUnits="userSpaceOnUse">
<stop stop-color="#EDEDED"/>
<stop offset="1" stop-color="#EDEDED" stop-opacity="0"/>
</linearGradient>
<linearGradient id="paint2_linear_6008_6334" x1="-7.99996" y1="16.6757" x2="-7.99996" y2="348.422" gradientUnits="userSpaceOnUse">
<stop stop-color="#EDEDED"/>
<stop offset="1" stop-color="#EDEDED" stop-opacity="0"/>
</linearGradient>
<linearGradient id="paint3_linear_6008_6334" x1="-7.99996" y1="16.6757" x2="-7.99996" y2="348.422" gradientUnits="userSpaceOnUse">
<stop stop-color="#EDEDED"/>
<stop offset="1" stop-color="#EDEDED" stop-opacity="0"/>
</linearGradient>
<linearGradient id="paint4_linear_6008_6334" x1="-7.99996" y1="16.6757" x2="-7.99996" y2="348.422" gradientUnits="userSpaceOnUse">
<stop stop-color="#EDEDED"/>
<stop offset="1" stop-color="#EDEDED" stop-opacity="0"/>
</linearGradient>
<linearGradient id="paint5_linear_6008_6334" x1="-7.99996" y1="16.6757" x2="-7.99996" y2="348.422" gradientUnits="userSpaceOnUse">
<stop stop-color="#EDEDED"/>
<stop offset="1" stop-color="#EDEDED" stop-opacity="0"/>
</linearGradient>
<linearGradient id="paint6_linear_6008_6334" x1="-7.99996" y1="16.6757" x2="-7.99996" y2="348.422" gradientUnits="userSpaceOnUse">
<stop stop-color="#EDEDED"/>
<stop offset="1" stop-color="#EDEDED" stop-opacity="0"/>
</linearGradient>
<linearGradient id="paint7_linear_6008_6334" x1="-7.99996" y1="16.6757" x2="-7.99996" y2="348.422" gradientUnits="userSpaceOnUse">
<stop stop-color="#EDEDED"/>
<stop offset="1" stop-color="#EDEDED" stop-opacity="0"/>
</linearGradient>
<linearGradient id="paint8_linear_6008_6334" x1="-7.99996" y1="16.6757" x2="-7.99996" y2="348.422" gradientUnits="userSpaceOnUse">
<stop stop-color="#EDEDED"/>
<stop offset="1" stop-color="#EDEDED" stop-opacity="0"/>
</linearGradient>
</defs>
</svg>
